<svg width="100" height="100" viewBox="0 0 100 100" fill="none" xmlns="http://www.w3.org/2000/svg">
<path d="M87.5 27.0833V58.3333H79.1667V31.25L58.3334 16.6667L37.5 31.25V37.5H29.1667V27.0833L58.3334 6.25L87.5 27.0833ZM64.5834 29.1667H60.4167V33.3333H64.5834V29.1667ZM56.25 29.1667H52.0834V33.3333H56.25V29.1667ZM64.5834 37.5H60.4167V41.6667H64.5834V37.5ZM56.25 37.5H52.0834V41.6667H56.25V37.5ZM79.1667 66.6667H70.8334C70.8334 61.6667 67.7084 57.1667 63.0417 55.4167L37.375 45.8333H4.16669V91.6667H29.1667V85.6667L58.3334 93.75L91.6667 83.3333V79.1667C91.6667 72.25 86.0834 66.6667 79.1667 66.6667ZM12.5 83.3333V54.1667H20.8334V83.3333H12.5ZM58.2084 85.0417L29.1667 77V54.1667H35.875L60.125 63.2083C61.5417 63.75 62.5 65.125 62.5 66.6667C62.5 66.6667 54.2084 66.4583 52.9167 66.0417L43 62.75L40.375 70.6667L50.2917 73.9583C52.4167 74.6667 54.625 75.0417 56.875 75.0417H79.1667C80.7917 75.0417 82.25 76 82.9167 77.375L58.2084 85.0417Z" fill="#316499"/>
</svg>
